<?xml version="1.0" encoding="UTF-8"?>
<svg width="237px" height="30px" viewBox="0 0 237 30" version="1.1" xmlns="http://www.w3.org/2000/svg" xmlns:xlink="http://www.w3.org/1999/xlink">
    <!-- Generator: Sketch 51.2 (57519) - http://www.bohemiancoding.com/sketch -->
    <defs></defs>
    <g id="Assets/Logo/trading-212---Dark" stroke="none" stroke-width="1" fill="none" fill-rule="evenodd">
        <g id="pt_logo">
            <g id="Group-7" transform="translate(170.142857, 0.000000)" fill="#3F3F3F">
                <path d="M56.4818571,18.9299571 C63.3107143,16.9666714 65.172,14.7938143 65.172,8.79295714 C65.172,4.34567143 63.2057143,-4.28571428e-05 54.8271429,-4.28571428e-05 C46.9637143,-4.28571428e-05 44.7921429,3.51638571 44.4822857,8.79295714 C44.4822857,9.41481429 44.8962857,9.82752857 45.5177143,9.82752857 L49.3448571,9.82752857 C50.0682857,9.82752857 50.379,9.51852857 50.4831429,8.79295714 C50.7938571,5.89624286 52.5505714,5.17195714 54.8271429,5.17195714 C57.3085714,5.17195714 59.2748571,6.00081429 59.2748571,8.79295714 C59.2748571,12.6218143 57.8284286,12.9308143 51.7234286,14.7938143 C45.309,16.6546714 43.4485714,19.5505286 43.4485714,24.3106714 L43.4485714,28.4481 C43.4485714,29.0691 43.7588571,29.4818143 44.4822857,29.4818143 L63.1024286,29.4818143 C63.723,29.4818143 64.1361429,29.1715286 64.1361429,28.4481 L64.1361429,25.3448143 C64.1361429,24.6209571 63.723,24.3106714 63.1024286,24.3106714 L49.3448571,24.3106714 C49.3448571,21.5172429 50.7938571,20.6883857 56.4818571,18.9299571" id="Fill-1"></path>
                <path d="M36.1896,24.3105429 L36.1896,1.24097143 C36.1896,0.517542857 35.6723143,0.205971429 34.9480286,0.414257143 L25.8447429,3.82825714 C25.3270286,4.03397143 25.0176,4.44797143 25.0176,4.96568571 L25.0176,8.58497143 C25.0176,9.3114 25.5344571,9.61954286 26.2578857,9.41511429 L30.3957429,7.83582857 L30.3957429,24.3105429 L25.0176,24.3105429 C24.2933143,24.3105429 23.9821714,24.7249714 23.9821714,25.3446857 L23.9821714,28.4479714 C23.9821714,29.0694 24.2933143,29.4816857 25.0176,29.4816857 L39.5003143,29.4816857 C40.1204571,29.4816857 40.5340286,29.1718286 40.5340286,28.4479714 L40.5340286,25.3446857 C40.5340286,24.6212571 40.1204571,24.3105429 39.5003143,24.3105429 L36.1896,24.3105429 Z" id="Fill-3"></path>
                <path d="M13.3087286,18.9299571 C20.1375857,16.9666714 21.9997286,14.7938143 21.9997286,8.79295714 C21.9997286,4.34567143 20.0330143,-4.28571428e-05 11.6544429,-4.28571428e-05 C3.79358571,-4.28571428e-05 1.61944286,3.51638571 1.30872857,8.79295714 C1.30872857,9.41481429 1.72272857,9.82752857 2.34544286,9.82752857 L6.17258571,9.82752857 C6.89558571,9.82752857 7.20672857,9.51852857 7.30915714,8.79295714 C7.62115714,5.89624286 9.37872857,5.17195714 11.6544429,5.17195714 C14.1380143,5.17195714 16.1034429,6.00081429 16.1034429,8.79295714 C16.1034429,12.6218143 14.6553,12.9308143 8.55072857,14.7938143 C2.13801429,16.6546714 0.275014286,19.5505286 0.275014286,24.3106714 L0.275014286,28.4481 C0.275014286,29.0691 0.586157143,29.4818143 1.30872857,29.4818143 L19.9297286,29.4818143 C20.5515857,29.4818143 20.9638714,29.1715286 20.9638714,28.4481 L20.9638714,25.3448143 C20.9638714,24.6209571 20.5515857,24.3106714 19.9297286,24.3106714 L6.17258571,24.3106714 C6.17258571,21.5172429 7.62115714,20.6883857 13.3087286,18.9299571" id="Fill-5"></path>
            </g>
            <path d="M124.6398,1.55168571 L124.6398,13.1385429 L125.007514,18.9345429 L114.916371,1.24011429 C114.606514,0.724542857 114.2958,0.516257143 113.674371,0.516257143 L109.744371,0.516257143 C109.019657,0.516257143 108.709371,0.930685714 108.709371,1.55168571 L108.709371,28.4479714 C108.709371,29.0694 109.019657,29.4816857 109.744371,29.4816857 L113.4678,29.4816857 C114.0888,29.4816857 114.501086,29.0694 114.501086,28.4479714 L114.501086,16.8611143 L114.134657,11.0642571 L124.225371,28.7586857 C124.536943,29.2751143 124.847229,29.4816857 125.466943,29.4816857 L129.398229,29.4816857 C130.0188,29.4816857 130.4328,29.1718286 130.4328,28.4479714 L130.4328,1.55168571 C130.4328,0.828257143 130.0188,0.516257143 129.398229,0.516257143 L125.6748,0.516257143 C124.950514,0.516257143 124.6398,0.828257143 124.6398,1.55168571" id="Fill-8" fill="#3F3F3F"></path>
            <path d="M103.1229,28.4481 L103.1229,1.55181429 C103.1229,0.827957143 102.709329,0.516385714 102.088329,0.516385714 L98.3640429,0.516385714 C97.6401857,0.516385714 97.3294714,0.930385714 97.3294714,1.55181429 L97.3294714,28.4481 C97.3294714,29.0691 97.6401857,29.4818143 98.3640429,29.4818143 L102.088329,29.4818143 C102.709329,29.4818143 103.1229,29.0691 103.1229,28.4481" id="Fill-10" fill="#3F3F3F"></path>
            <path d="M57.4001143,7.27697143 L61.4338286,16.2401143 C61.6412571,16.8611143 62.0531143,17.0694 62.5716857,17.0694 L66.3996857,17.0694 C67.2268286,17.0694 67.5358286,16.5521143 67.2268286,15.8278286 L60.7091143,1.34382857 C60.5025429,0.724542857 60.0881143,0.516685714 59.5716857,0.516685714 L55.2276857,0.516685714 C54.7095429,0.516685714 54.2964,0.724542857 54.0885429,1.34382857 L47.5716857,15.8278286 C47.2614,16.5521143 47.5716857,17.0694 48.3988286,17.0694 L52.2264,17.0694 C52.7441143,17.0694 53.1576857,16.8611143 53.3646857,16.2401143 L57.4001143,7.27697143 Z" id="Fill-12" fill="#00A7E1"></path>
            <path d="M34.2258857,13.3447286 L30.1921714,13.3447286 L30.1921714,5.6883 L34.2258857,5.6883 C37.7436,5.6883 39.1930286,6.72458571 39.1930286,9.51758571 C39.1930286,12.3088714 37.7436,13.3447286 34.2258857,13.3447286 L34.2258857,13.3447286 Z M40.1564571,17.6445857 C44.3063143,16.1120143 45.0884571,12.7845857 45.0884571,9.51758571 C45.0884571,5.06901429 43.6411714,0.5163 34.2258857,0.5163 L25.4350286,0.5163 C24.7094571,0.5163 24.3987429,0.930728571 24.3987429,1.55172857 L24.3987429,28.4480143 C24.3987429,29.0690143 24.7094571,29.4817286 25.4350286,29.4817286 L29.1576,29.4817286 C29.7786,29.4817286 30.1921714,29.0690143 30.1921714,28.4480143 L30.1921714,18.5158714 L34.5190286,18.5154429 L38.7781714,28.6554429 C38.9851714,29.2751571 39.3987429,29.4817286 39.9168857,29.4817286 L43.7431714,29.4817286 C44.5724571,29.4817286 44.8810286,28.9644429 44.5724571,28.2405857 L40.1564571,17.6445857 Z" id="Fill-14" fill="#3F3F3F"></path>
            <path d="M20.0545286,0.516471429 L1.43438571,0.516471429 C0.709242857,0.516471429 0.399385714,0.828042857 0.399385714,1.5519 L0.399385714,4.65432857 C0.399385714,5.27447143 0.813385714,5.68847143 1.43438571,5.68847143 L7.84795714,5.68847143 L7.84795714,28.4481857 C7.84795714,29.0691857 8.15824286,29.4819 8.8821,29.4819 L12.6068143,29.4819 C13.2273857,29.4819 13.6409571,29.0691857 13.6409571,28.4481857 L13.6409571,5.68847143 L20.0545286,5.68847143 C20.6746714,5.68847143 21.0882429,5.27447143 21.0882429,4.65432857 L21.0882429,1.5519 C21.0882429,0.828042857 20.6746714,0.516471429 20.0545286,0.516471429" id="Fill-16" fill="#3F3F3F"></path>
            <path d="M156.192086,13.9645714 L147.398657,13.9645714 C146.676514,13.9645714 146.364943,14.2752857 146.364943,15 L146.364943,18.1045714 C146.364943,18.7234286 146.676514,19.1382857 147.398657,19.1382857 L151.3308,19.1382857 L151.3308,20.1715714 C151.3308,23.9982857 149.880086,24.828 146.364943,24.828 C142.847657,24.828 141.398657,23.9982857 141.398657,20.1715714 L141.398657,9.82757143 C141.398657,5.99957143 142.847657,5.172 146.364943,5.172 C149.570657,5.172 151.019229,5.89628571 151.3308,8.79214286 C151.3308,9.51771429 151.640229,9.82757143 152.364086,9.82757143 L156.192086,9.82757143 C156.813086,9.82757143 157.2258,9.414 157.2258,8.79214286 C157.019229,3.51642857 155.157514,0 146.364943,0 C136.950943,0 135.5028,4.03285714 135.5028,9.51771429 L135.5028,20.481 C135.5028,25.9658571 136.950943,30 146.364943,30 C155.777657,30 157.2258,25.9658571 157.2258,20.481 L157.2258,15 C157.2258,14.2752857 156.813086,13.9645714 156.192086,13.9645714" id="Fill-18" fill="#3F3F3F"></path>
            <path d="M86.2617,19.6540286 C86.2617,23.4824571 84.8131286,24.3104571 81.2954143,24.3104571 L77.2608429,24.3104571 L77.2608429,5.6886 L81.2954143,5.6886 C84.8131286,5.6886 86.2617,6.51745714 86.2617,10.3446 L86.2617,19.6540286 Z M81.2954143,0.5166 L72.5024143,0.5166 C71.7785571,0.5166 71.4682714,0.9306 71.4682714,1.5516 L71.4682714,28.4483143 C71.4682714,29.0693143 71.7785571,29.4820286 72.5024143,29.4820286 L81.2954143,29.4820286 C90.7089857,29.4820286 92.1567,25.4478857 92.1567,19.9660286 L92.1567,10.0338857 C92.1567,4.55074286 90.7089857,0.5166 81.2954143,0.5166 L81.2954143,0.5166 Z" id="Fill-20" fill="#3F3F3F"></path>
        </g>
    </g>
</svg>