<?xml version="1.0" encoding="UTF-8"?> <svg xmlns="http://www.w3.org/2000/svg" width="166" height="166" viewBox="0 0 166 166"><title>pie</title><g fill="none" fill-rule="evenodd"><path d="M52.78 74.863L2.8 61.529C12.461 25.302 45.42 0 82.945 0v51.73c-14.128 0-26.533 9.513-30.166 23.133" fill="#18C484"></path><path d="M36.552 151.711C13.664 136.248 0 110.542 0 82.946c0-7.252.942-14.458 2.798-21.418L52.78 74.861a31.38 31.38 0 0 0-1.051 8.085 31.227 31.227 0 0 0 13.78 25.9l-28.958 42.865z" fill="#7445A8"></path><path d="M82.946 165.893c-16.617 0-32.659-4.903-46.394-14.182l28.957-42.865c5.15 3.479 11.18 5.318 17.437 5.318 6.384 0 12.514-1.909 17.727-5.516l29.44 42.536c-13.904 9.622-30.215 14.709-47.167 14.709" fill="#18C4BE"></path><path d="M130.112 151.184l-29.439-42.536c8.446-5.846 13.49-15.454 13.49-25.701a31.46 31.46 0 0 0-1.05-8.085l49.981-13.333a83.112 83.112 0 0 1 2.798 21.418c0 27.22-13.376 52.729-35.78 68.237" fill="#023757"></path><path d="M113.112 74.862C109.48 61.242 97.074 51.73 82.946 51.73V0c37.526 0 70.485 25.302 80.148 61.529l-49.982 13.333z" fill="#011B2B"></path><path d="M30.644 44.121c.485 0 .908-.044 1.269-.132a5.41 5.41 0 0 0 1.029-.363v-2.107h-1.45a.447.447 0 0 1-.327-.116.377.377 0 0 1-.121-.285v-1.217h3.852v4.684c-.294.215-.6.4-.917.557a5.751 5.751 0 0 1-1.018.389 7.73 7.73 0 0 1-1.156.229 11.25 11.25 0 0 1-1.33.076c-.843 0-1.62-.148-2.33-.441a5.553 5.553 0 0 1-1.841-1.226 5.576 5.576 0 0 1-1.213-1.872 6.32 6.32 0 0 1-.436-2.38c0-.869.14-1.668.425-2.394a5.388 5.388 0 0 1 1.204-1.873 5.387 5.387 0 0 1 1.894-1.216c.74-.29 1.574-.433 2.497-.433.946 0 1.764.14 2.455.42a5.622 5.622 0 0 1 1.757 1.093l-.624.976c-.123.197-.285.296-.49.296a.722.722 0 0 1-.391-.128c-.171-.1-.345-.202-.524-.303a3.624 3.624 0 0 0-.593-.264 4.918 4.918 0 0 0-1.661-.257c-.571 0-1.088.096-1.55.288a3.283 3.283 0 0 0-1.181.825 3.722 3.722 0 0 0-.752 1.29 5.055 5.055 0 0 0-.264 1.68c0 .669.093 1.262.279 1.782.188.522.449.96.785 1.319.336.356.738.63 1.202.82a3.99 3.99 0 0 0 1.52.283M45.8 39.917c0-.635-.083-1.205-.251-1.709a3.607 3.607 0 0 0-.726-1.285 3.104 3.104 0 0 0-1.148-.809 3.97 3.97 0 0 0-1.525-.28c-.566 0-1.076.094-1.53.28a3.145 3.145 0 0 0-1.157.81c-.317.351-.561.78-.732 1.284-.171.504-.256 1.074-.256 1.71 0 .635.085 1.205.256 1.71.17.503.415.931.732 1.28.318.35.703.617 1.157.805.454.186.964.28 1.53.28a3.97 3.97 0 0 0 1.525-.28 3.14 3.14 0 0 0 1.148-.805c.316-.349.557-.777.726-1.28a5.402 5.402 0 0 0 .252-1.71m2.21 0a6.41 6.41 0 0 1-.425 2.357 5.598 5.598 0 0 1-1.192 1.878 5.41 5.41 0 0 1-1.85 1.238c-.722.296-1.518.444-2.394.444-.875 0-1.675-.148-2.4-.444a5.45 5.45 0 0 1-1.856-1.238 5.533 5.533 0 0 1-1.197-1.878 6.41 6.41 0 0 1-.424-2.358c0-.849.14-1.634.424-2.357a5.533 5.533 0 0 1 1.197-1.878 5.45 5.45 0 0 1 1.857-1.238c.724-.296 1.524-.444 2.399-.444.876 0 1.672.15 2.394.448a5.483 5.483 0 0 1 1.85 1.238 5.56 5.56 0 0 1 1.192 1.874c.283.723.425 1.508.425 2.357m10.594 0c0-.635-.084-1.205-.253-1.709a3.59 3.59 0 0 0-.725-1.285 3.104 3.104 0 0 0-1.149-.809 3.97 3.97 0 0 0-1.525-.28 4 4 0 0 0-1.53.28c-.454.187-.84.456-1.157.81-.316.351-.56.78-.731 1.284a5.304 5.304 0 0 0-.257 1.71c0 .635.086 1.205.257 1.71.17.503.415.931.732 1.28.316.35.702.617 1.156.805a4 4 0 0 0 1.53.28 3.97 3.97 0 0 0 1.525-.28 3.14 3.14 0 0 0 1.148-.805c.317-.349.558-.777.726-1.28.169-.505.253-1.075.253-1.71m2.21 0a6.41 6.41 0 0 1-.425 2.357 5.598 5.598 0 0 1-1.193 1.878 5.425 5.425 0 0 1-1.85 1.238c-.721.296-1.519.444-2.394.444-.876 0-1.675-.148-2.399-.444a5.43 5.43 0 0 1-1.857-1.238 5.533 5.533 0 0 1-1.197-1.878 6.389 6.389 0 0 1-.423-2.358c0-.849.14-1.634.424-2.357a5.533 5.533 0 0 1 1.197-1.878 5.43 5.43 0 0 1 1.856-1.238c.724-.296 1.523-.444 2.4-.444.874 0 1.672.15 2.392.448a5.497 5.497 0 0 1 1.852 1.238 5.56 5.56 0 0 1 1.191 1.874c.283.723.425 1.508.425 2.357m7.014 4.204c.486 0 .91-.044 1.27-.132.36-.087.703-.21 1.028-.363v-2.107h-1.448a.45.45 0 0 1-.329-.116.38.38 0 0 1-.12-.285v-1.217h3.851v4.684a6.318 6.318 0 0 1-.917.557 5.74 5.74 0 0 1-1.017.389c-.36.102-.746.178-1.157.229-.41.049-.853.076-1.329.076-.844 0-1.62-.148-2.33-.441a5.547 5.547 0 0 1-1.842-1.226 5.607 5.607 0 0 1-1.213-1.872 6.34 6.34 0 0 1-.436-2.38c0-.869.141-1.668.425-2.394a5.39 5.39 0 0 1 1.205-1.873 5.383 5.383 0 0 1 1.893-1.216c.741-.29 1.575-.433 2.498-.433.945 0 1.763.14 2.454.42a5.615 5.615 0 0 1 1.758 1.093l-.625.976c-.123.197-.285.296-.488.296a.72.72 0 0 1-.392-.128c-.172-.1-.345-.202-.525-.303a3.613 3.613 0 0 0-.592-.264 4.965 4.965 0 0 0-1.66-.257c-.573 0-1.089.096-1.55.288a3.295 3.295 0 0 0-1.183.825 3.72 3.72 0 0 0-.75 1.29 5.029 5.029 0 0 0-.266 1.68c0 .669.094 1.262.28 1.782.187.522.448.96.785 1.319.336.356.737.63 1.201.82.464.188.971.283 1.521.283m33.258-2.786h3.69l-1.408-3.852a16.434 16.434 0 0 1-.44-1.36c-.075.272-.15.525-.22.76-.072.234-.143.44-.213.616l-1.41 3.836zm7.495 4.372h-1.666a.736.736 0 0 1-.461-.14.805.805 0 0 1-.26-.349l-.864-2.362h-4.797l-.864 2.362a.767.767 0 0 1-.252.337.713.713 0 0 1-.461.152h-1.674l4.549-11.579h2.2l4.55 11.58zm3.875-4.372h3.691l-1.409-3.852c-.064-.17-.136-.372-.212-.604a13.295 13.295 0 0 1-.228-.757c-.075.273-.149.526-.22.761-.072.234-.143.44-.213.616l-1.409 3.836zm7.495 4.372h-1.666a.736.736 0 0 1-.46-.14.805.805 0 0 1-.26-.349l-.865-2.362h-4.797l-.864 2.362a.762.762 0 0 1-.253.337.708.708 0 0 1-.46.152h-1.674l4.55-11.579h2.2l4.55 11.58zm3.419-5.757h1.617a3.26 3.26 0 0 0 1.032-.147 1.94 1.94 0 0 0 .73-.425c.192-.185.336-.408.432-.673a2.58 2.58 0 0 0 .144-.885c0-.31-.048-.59-.144-.841a1.658 1.658 0 0 0-.432-.64 1.936 1.936 0 0 0-.73-.405 3.455 3.455 0 0 0-1.032-.14h-1.617v4.156zm0 1.682v4.076h-2.154v-11.58h3.771c.774 0 1.444.092 2.01.273.565.182 1.033.436 1.401.76.368.326.641.717.817 1.17.176.454.264.95.264 1.489a4.12 4.12 0 0 1-.28 1.542 3.203 3.203 0 0 1-.84 1.205c-.375.336-.842.598-1.402.784-.56.187-1.217.28-1.97.28h-1.617zm9.937 2.298h4.636v1.777h-6.79V34.128h2.154zm-8.779 52.183a.6.6 0 0 1-.204.248.514.514 0 0 1-.276.072.712.712 0 0 1-.36-.124 12.118 12.118 0 0 0-.473-.276 3.876 3.876 0 0 0-.636-.276 2.672 2.672 0 0 0-.862-.124c-.298 0-.559.036-.78.107a1.637 1.637 0 0 0-.56.3 1.188 1.188 0 0 0-.34.462 1.517 1.517 0 0 0-.113.588c0 .272.076.499.228.68.152.182.354.336.605.465.25.128.536.242.856.344.32.1.647.21.981.324.334.115.661.249.981.4.32.153.605.345.857.578.251.23.452.515.605.852.152.336.227.744.227 1.225a4.01 4.01 0 0 1-.267 1.469 3.405 3.405 0 0 1-.785 1.194 3.714 3.714 0 0 1-1.26.8c-.498.195-1.067.293-1.707.293a5.763 5.763 0 0 1-2.117-.417 5.282 5.282 0 0 1-.92-.48 4.498 4.498 0 0 1-.766-.625l.624-1.033a.834.834 0 0 1 .212-.19.534.534 0 0 1 .276-.074c.134 0 .28.055.433.163.155.11.338.232.55.366.21.133.458.254.743.364.286.109.63.164 1.03.164.613 0 1.088-.146 1.424-.437.337-.291.505-.708.505-1.253 0-.304-.076-.552-.229-.745a1.867 1.867 0 0 0-.604-.484 4.503 4.503 0 0 0-.857-.332 28.66 28.66 0 0 1-.976-.297 8.19 8.19 0 0 1-.978-.384 3.16 3.16 0 0 1-.856-.584 2.683 2.683 0 0 1-.605-.901c-.152-.36-.228-.805-.228-1.333a3.182 3.182 0 0 1 .99-2.298 3.62 3.62 0 0 1 1.188-.745c.47-.187 1.006-.28 1.61-.28.683 0 1.313.106 1.89.32a4.285 4.285 0 0 1 1.472.896l-.528 1.018zm3.756-2.094a.546.546 0 0 1 .32.151c.048.046.102.107.16.181l6.078 7.743a7.066 7.066 0 0 1-.044-.549 11.262 11.262 0 0 1-.013-.501v-7.037h1.897v11.578h-1.112a.975.975 0 0 1-.424-.08.945.945 0 0 1-.329-.289l-6.053-7.711c.016.171.028.341.037.509.006.168.011.322.011.461v7.11h-1.897V94.007h1.128c.096 0 .177.003.241.012m13.42 7.194h3.691l-1.409-3.852a16.269 16.269 0 0 1-.44-1.36c-.075.272-.149.525-.22.76-.073.234-.143.44-.213.616l-1.409 3.836zm7.494 4.372h-1.666a.725.725 0 0 1-.46-.14.79.79 0 0 1-.26-.349l-.865-2.362h-4.796l-.865 2.362a.76.76 0 0 1-.713.49H137.9l4.548-11.579h2.202l4.548 11.578zm3.419-5.757h1.617c.396 0 .74-.05 1.033-.147.294-.1.537-.241.73-.425.191-.185.336-.408.432-.673.095-.265.143-.56.143-.885 0-.31-.048-.59-.143-.84a1.664 1.664 0 0 0-.433-.641 1.932 1.932 0 0 0-.729-.405 3.457 3.457 0 0 0-1.033-.14h-1.617v4.156zm0 1.682v4.076h-2.154V94.008h3.771c.775 0 1.445.09 2.011.27.565.183 1.032.437 1.4.762.368.326.641.716.818 1.169.175.454.263.95.263 1.489a4.12 4.12 0 0 1-.28 1.542 3.192 3.192 0 0 1-.84 1.205c-.374.336-.842.598-1.402.784-.56.187-1.217.28-1.97.28h-1.617zm-89.559 39.296h3.69l-1.408-3.852a18.55 18.55 0 0 1-.212-.604 13.295 13.295 0 0 1-.228-.757c-.074.273-.15.526-.22.761-.072.234-.143.44-.213.616l-1.41 3.836zm7.495 4.372h-1.666a.725.725 0 0 1-.46-.14.79.79 0 0 1-.26-.349l-.865-2.362h-4.797l-.864 2.362a.767.767 0 0 1-.252.337.713.713 0 0 1-.461.152h-1.673l4.548-11.579h2.202l4.548 11.58zm7.257-4.272c.078.185.154.37.23.557.075-.193.151-.382.231-.57a7.39 7.39 0 0 1 .257-.535l3.427-6.414a.876.876 0 0 1 .132-.192.409.409 0 0 1 .153-.104.659.659 0 0 1 .187-.04c.07-.006.152-.01.247-.01H84.3v11.58h-1.897v-7.48a10.906 10.906 0 0 1 .048-.96l-3.498 6.566a.906.906 0 0 1-.314.348.805.805 0 0 1-.447.125h-.296a.805.805 0 0 1-.448-.125.906.906 0 0 1-.313-.348l-3.549-6.59c.023.176.038.349.046.517.007.168.011.324.011.468v7.479h-1.897v-11.58h1.626c.094 0 .177.004.248.01a.681.681 0 0 1 .188.04.454.454 0 0 1 .155.104.817.817 0 0 1 .137.192l3.459 6.43c.09.17.175.348.252.532M94.91 133.6v.792c0 .245-.069.47-.208.673l-5.94 8.391h6.004v1.722h-8.799v-.85c0-.106.017-.208.055-.308.037-.099.085-.19.144-.275l5.958-8.432h-5.78V133.6h8.566zm2.979.012a.538.538 0 0 1 .32.15c.048.047.102.108.16.182l6.078 7.743a7.595 7.595 0 0 1-.044-.55 11.195 11.195 0 0 1-.012-.5v-7.038h1.897v11.579h-1.113a.993.993 0 0 1-.424-.08.934.934 0 0 1-.328-.29l-6.054-7.71a11.187 11.187 0 0 1 .048.97v7.11H96.52v-11.58h1.129c.096 0 .176.005.24.014m-79.63-39.605v1.77h-3.483v9.808h-2.154v-9.809h-3.5v-1.769zm7.574 2.106a.593.593 0 0 1-.204.248.511.511 0 0 1-.276.072.712.712 0 0 1-.361-.124 12.013 12.013 0 0 0-.471-.276 3.851 3.851 0 0 0-.637-.276 2.672 2.672 0 0 0-.862-.124c-.298 0-.558.036-.78.107a1.646 1.646 0 0 0-.56.3 1.188 1.188 0 0 0-.341.462 1.517 1.517 0 0 0-.112.588c0 .272.076.499.229.68.151.182.353.336.604.465.25.128.537.242.857.344.32.1.646.21.98.324.334.115.662.249.982.4.32.153.605.345.856.578.251.23.452.515.605.852.152.336.228.744.228 1.225a4.01 4.01 0 0 1-.268 1.469 3.416 3.416 0 0 1-.784 1.194 3.719 3.719 0 0 1-1.262.8c-.496.195-1.066.293-1.706.293a5.749 5.749 0 0 1-2.117-.417 5.282 5.282 0 0 1-.921-.48 4.537 4.537 0 0 1-.765-.625l.625-1.033a.802.802 0 0 1 .212-.19.53.53 0 0 1 .275-.074c.134 0 .279.055.433.163.155.11.338.232.549.366.211.133.459.254.745.364.285.109.628.164 1.028.164.615 0 1.089-.146 1.426-.437.336-.291.504-.708.504-1.253 0-.304-.076-.552-.229-.745a1.857 1.857 0 0 0-.604-.484 4.477 4.477 0 0 0-.857-.332 28.66 28.66 0 0 1-.976-.297 8.243 8.243 0 0 1-.977-.384 3.165 3.165 0 0 1-.857-.584 2.698 2.698 0 0 1-.605-.901c-.151-.36-.227-.805-.227-1.333 0-.422.084-.833.252-1.234.168-.4.413-.754.736-1.064.323-.31.72-.558 1.19-.745.469-.187 1.005-.28 1.609-.28a5.39 5.39 0 0 1 1.89.32 4.298 4.298 0 0 1 1.473.896l-.529 1.018zm4.54 7.694h4.637v1.778h-6.79V94.007h2.153zm8.807-2.594h3.692l-1.41-3.852a18.55 18.55 0 0 1-.211-.604 13.295 13.295 0 0 1-.228-.757c-.075.273-.15.526-.22.761-.072.234-.143.44-.213.616l-1.41 3.836zm7.496 4.372H45.01a.725.725 0 0 1-.46-.14.8.8 0 0 1-.261-.349l-.864-2.362h-4.797l-.864 2.362a.767.767 0 0 1-.252.337.713.713 0 0 1-.461.152h-1.674l4.549-11.578h2.202l4.548 11.578z" fill="#FFF"></path></g></svg> 